HIERARCHY
ROOT Hips
{
	OFFSET 0.000000 97.167313 0.000000
	CHANNELS 6 Xposition Yposition Zposition Xrotation Yrotation Zrotation
	JOINT Spine
	{
		OFFSET 0.000000 13.784798 0.064400
		CHANNELS 3 Xrotation Yrotation Zrotation
		JOINT Spine1
		{
			OFFSET 0.000000 12.037903 0.404700
			CHANNELS 3 Xrotation Yrotation Zrotation
			JOINT Spine2
			{
				OFFSET 0.000000 17.795601 0.420200
				CHANNELS 3 Xrotation Yrotation Zrotation
				JOINT Neck
				{
					OFFSET 0.000000 39.131302 11.954600
					CHANNELS 3 Xrotation Yrotation Zrotation
					JOINT Head
					{
						OFFSET 0.000000 14.456192 15.627699
						CHANNELS 3 Xrotation Yrotation Zrotation
						JOINT HeadTop_End
						{
							OFFSET 0.000000 15.703506 7.603401
							CHANNELS 3 Xrotation Yrotation Zrotation
							End Site
							{
								OFFSET 0.000000 17.447403 0.000000
							}
						}
					}
				}
				JOINT LeftShoulder
				{
					OFFSET 17.399500 24.608795 1.168800
					CHANNELS 3 Xrotation Yrotation Zrotation
					JOINT LeftArm
					{
						OFFSET 18.980635 5.765305 1.818600
						CHANNELS 3 Xrotation Yrotation Zrotation
						JOINT LeftForeArm
						{
							OFFSET 49.290169 0.000000 0.000000
							CHANNELS 3 Xrotation Yrotation Zrotation
							JOINT LeftHand
							{
								OFFSET 31.562012 0.000000 0.000000
								CHANNELS 3 Xrotation Yrotation Zrotation
								JOINT LeftHandThumb1
								{
									OFFSET 6.133995 -4.388519 7.076070
									CHANNELS 3 Xrotation Yrotation Zrotation
									JOINT LeftHandThumb2
									{
										OFFSET 6.037666 -3.485840 3.485847
										CHANNELS 3 Xrotation Yrotation Zrotation
										JOINT LeftHandThumb3
										{
											OFFSET 6.496506 -3.750763 3.750761
											CHANNELS 3 Xrotation Yrotation Zrotation
											JOINT LeftHandThumb4
											{
												OFFSET 5.616882 -3.242905 3.242910
												CHANNELS 3 Xrotation Yrotation Zrotation
												End Site
												{
													OFFSET -1.254608 7.132141 0.375429
												}
											}
										}
									}
								}
								JOINT LeftHandPinky1
								{
									OFFSET 18.920792 -0.453171 -11.426712
									CHANNELS 3 Xrotation Yrotation Zrotation
									JOINT LeftHandPinky2
									{
										OFFSET 4.919586 0.000000 0.000000
										CHANNELS 3 Xrotation Yrotation Zrotation
										JOINT LeftHandPinky3
										{
											OFFSET 5.233047 0.000000 0.000000
											CHANNELS 3 Xrotation Yrotation Zrotation
											JOINT LeftHandPinky4
											{
												OFFSET 5.571716 0.000000 0.000000
												CHANNELS 3 Xrotation Yrotation Zrotation
												End Site
												{
													OFFSET -3.459808 4.342407 -0.466164
												}
											}
										}
									}
								}
								JOINT LeftHandRing1
								{
									OFFSET 22.726120 -0.094986 -6.500475
									CHANNELS 3 Xrotation Yrotation Zrotation
									JOINT LeftHandRing2
									{
										OFFSET 6.408615 0.000000 0.000000
										CHANNELS 3 Xrotation Yrotation Zrotation
										JOINT LeftHandRing3
										{
											OFFSET 6.150223 0.000000 0.000000
											CHANNELS 3 Xrotation Yrotation Zrotation
											JOINT LeftHandRing4
											{
												OFFSET 6.145386 0.000000 0.000000
												CHANNELS 3 Xrotation Yrotation Zrotation
												End Site
												{
													OFFSET -3.671402 4.923981 -0.202372
												}
											}
										}
									}
								}
								JOINT LeftHandMiddle1
								{
									OFFSET 23.373947 0.000000 0.000001
									CHANNELS 3 Xrotation Yrotation Zrotation
									JOINT LeftHandMiddle2
									{
										OFFSET 6.996567 0.000000 0.000000
										CHANNELS 3 Xrotation Yrotation Zrotation
										JOINT LeftHandMiddle3
										{
											OFFSET 7.015945 0.000000 0.000000
											CHANNELS 3 Xrotation Yrotation Zrotation
											JOINT LeftHandMiddle4
											{
												OFFSET 7.721573 0.000000 0.000000
												CHANNELS 3 Xrotation Yrotation Zrotation
												End Site
												{
													OFFSET -4.651108 6.158463 0.251582
												}
											}
										}
									}
								}
								JOINT LeftHandIndex1
								{
									OFFSET 21.310577 -0.490082 6.209344
									CHANNELS 3 Xrotation Yrotation Zrotation
									JOINT LeftHandIndex2
									{
										OFFSET 7.536453 0.000000 0.000000
										CHANNELS 3 Xrotation Yrotation Zrotation
										JOINT LeftHandIndex3
										{
											OFFSET 7.512344 0.000000 0.000000
											CHANNELS 3 Xrotation Yrotation Zrotation
											JOINT LeftHandIndex4
											{
												OFFSET 10.212402 0.000000 0.000001
												CHANNELS 3 Xrotation Yrotation Zrotation
												End Site
												{
													OFFSET -5.180801 8.690506 1.388433
												}
											}
										}
									}
								}
							}
						}
					}
				}
				JOINT RightShoulder
				{
					OFFSET -17.399500 24.608795 1.168800
					CHANNELS 3 Xrotation Yrotation Zrotation
					JOINT RightArm
					{
						OFFSET -18.980635 5.765305 1.818600
						CHANNELS 3 Xrotation Yrotation Zrotation
						JOINT RightForeArm
						{
							OFFSET -49.290169 0.000000 0.000000
							CHANNELS 3 Xrotation Yrotation Zrotation
							JOINT RightHand
							{
								OFFSET -31.562012 0.000000 0.000000
								CHANNELS 3 Xrotation Yrotation Zrotation
								JOINT RightHandThumb1
								{
									OFFSET -6.133995 -4.388519 7.076070
									CHANNELS 3 Xrotation Yrotation Zrotation
									JOINT RightHandThumb2
									{
										OFFSET -6.037666 -3.485840 3.485847
										CHANNELS 3 Xrotation Yrotation Zrotation
										JOINT RightHandThumb3
										{
											OFFSET -6.496506 -3.750763 3.750761
											CHANNELS 3 Xrotation Yrotation Zrotation
											JOINT RightHandThumb4
											{
												OFFSET -5.616882 -3.242905 3.242910
												CHANNELS 3 Xrotation Yrotation Zrotation
												End Site
												{
													OFFSET 1.254608 7.132141 0.375429
												}
											}
										}
									}
								}
								JOINT RightHandIndex1
								{
									OFFSET -21.310577 -0.490082 6.209344
									CHANNELS 3 Xrotation Yrotation Zrotation
									JOINT RightHandIndex2
									{
										OFFSET -7.536453 0.000000 0.000000
										CHANNELS 3 Xrotation Yrotation Zrotation
										JOINT RightHandIndex3
										{
											OFFSET -7.512344 0.000000 0.000000
											CHANNELS 3 Xrotation Yrotation Zrotation
											JOINT RightHandIndex4
											{
												OFFSET -10.212402 0.000000 0.000001
												CHANNELS 3 Xrotation Yrotation Zrotation
												End Site
												{
													OFFSET 5.180801 8.690506 1.388433
												}
											}
										}
									}
								}
								JOINT RightHandMiddle1
								{
									OFFSET -23.373947 0.000000 0.000001
									CHANNELS 3 Xrotation Yrotation Zrotation
									JOINT RightHandMiddle2
									{
										OFFSET -6.996567 0.000000 0.000000
										CHANNELS 3 Xrotation Yrotation Zrotation
										JOINT RightHandMiddle3
										{
											OFFSET -7.015945 0.000000 0.000000
											CHANNELS 3 Xrotation Yrotation Zrotation
											JOINT RightHandMiddle4
											{
												OFFSET -7.721573 0.000000 0.000000
												CHANNELS 3 Xrotation Yrotation Zrotation
												End Site
												{
													OFFSET 4.651108 6.158463 0.251582
												}
											}
										}
									}
								}
								JOINT RightHandRing1
								{
									OFFSET -22.726120 -0.094986 -6.500475
									CHANNELS 3 Xrotation Yrotation Zrotation
									JOINT RightHandRing2
									{
										OFFSET -6.408615 0.000000 0.000000
										CHANNELS 3 Xrotation Yrotation Zrotation
										JOINT RightHandRing3
										{
											OFFSET -6.150223 0.000000 0.000000
											CHANNELS 3 Xrotation Yrotation Zrotation
											JOINT RightHandRing4
											{
												OFFSET -6.145386 0.000000 0.000000
												CHANNELS 3 Xrotation Yrotation Zrotation
												End Site
												{
													OFFSET 3.671402 4.923981 -0.202372
												}
											}
										}
									}
								}
								JOINT RightHandPinky1
								{
									OFFSET -18.920792 -0.453171 -11.426712
									CHANNELS 3 Xrotation Yrotation Zrotation
									JOINT RightHandPinky2
									{
										OFFSET -4.919586 0.000000 0.000000
										CHANNELS 3 Xrotation Yrotation Zrotation
										JOINT RightHandPinky3
										{
											OFFSET -5.233047 0.000000 0.000000
											CHANNELS 3 Xrotation Yrotation Zrotation
											JOINT RightHandPinky4
											{
												OFFSET -5.571716 0.000000 0.000000
												CHANNELS 3 Xrotation Yrotation Zrotation
												End Site
												{
													OFFSET 3.459808 4.342407 -0.466164
												}
											}
										}
									}
								}
							}
						}
					}
				}
			}
		}
	}
	JOINT LeftUpLeg
	{
		OFFSET 19.899099 -7.885101 -3.429500
		CHANNELS 3 Xrotation Yrotation Zrotation
		JOINT LeftLeg
		{
			OFFSET 1.745560 -36.997807 10.304700
			CHANNELS 3 Xrotation Yrotation Zrotation
			JOINT LeftFoot
			{
				OFFSET -1.745558 -29.803308 -13.615400
				CHANNELS 3 Xrotation Yrotation Zrotation
				JOINT LeftToeBase
				{
					OFFSET 1.181900 -18.539904 15.226099
					CHANNELS 3 Xrotation Yrotation Zrotation
					JOINT LeftToe_End
					{
						OFFSET -0.863701 1.402801 16.534700
						CHANNELS 3 Xrotation Yrotation Zrotation
						End Site
						{
							OFFSET 0.000000 16.616566 0.000000
						}
					}
				}
			}
		}
	}
	JOINT RightUpLeg
	{
		OFFSET -19.899099 -7.885101 -3.429500
		CHANNELS 3 Xrotation Yrotation Zrotation
		JOINT RightLeg
		{
			OFFSET -1.745560 -36.997807 10.304700
			CHANNELS 3 Xrotation Yrotation Zrotation
			JOINT RightFoot
			{
				OFFSET 1.745558 -29.803308 -13.615400
				CHANNELS 3 Xrotation Yrotation Zrotation
				JOINT RightToeBase
				{
					OFFSET -1.181900 -18.539904 15.226099
					CHANNELS 3 Xrotation Yrotation Zrotation
					JOINT RightToe_End
					{
						OFFSET 0.863701 1.402801 16.534700
						CHANNELS 3 Xrotation Yrotation Zrotation
						End Site
						{
							OFFSET 0.000000 16.616566 0.000000
						}
					}
				}
			}
		}
	}
}
MOTION
Frames: 4
Frame Time: 0.033333
1.427064 79.341003 54.254368 -29.980507 -3.144413 -0.471677 0.196365 0.106898 0.018311 0.484036 -0.638631 1.073701 0.480258 -0.635839 1.067545 3.649647 -1.809637 3.265620 -12.732226 -4.608217 -3.931864 0.000002 0.000000 -0.000001 6.063302 -19.998806 10.876241 -27.499445 -13.180365 -48.039231 -0.000025 -135.777549 -0.000033 22.683615 -8.202120 30.100545 -3.482914 -16.065380 1.018261 18.271921 14.636042 -38.635126 -3.736275 33.436532 12.869940 0.000000 0.000001 -0.000002 5.669586 17.397487 -27.919491 0.282817 1.799947 -17.857958 1.292079 3.671394 -38.766470 0.000001 0.000000 -0.000002 4.393935 12.975461 -24.509162 0.153190 1.332271 -13.117289 1.742740 4.169711 -45.350465 0.000005 0.000003 0.000005 3.011248 10.559482 -22.442052 0.112112 1.141856 -11.215519 0.519262 2.413216 -24.283358 0.000001 -0.000001 0.000006 7.952609 3.458505 -15.382061 0.142692 1.286431 -12.658062 0.366869 2.042341 -20.364513 0.000000 0.000004 0.000004 -13.954136 12.990706 -14.567528 -5.477054 7.237945 34.924062 -0.000020 136.265266 0.000048 13.134688 9.850029 -37.007505 -3.793912 19.099787 0.365140 17.674265 -15.635993 38.263580 -1.155202 -39.088213 -12.822812 -0.000000 0.000000 0.000002 7.641808 -3.005752 14.662365 0.096518 -0.944265 11.673012 0.262891 -1.544104 19.323669 0.000002 -0.000001 0.000001 2.887996 -10.181022 21.857758 0.043984 -0.639233 7.871993 0.441351 -1.980730 25.121243 0.000000 0.000003 -0.000009 3.851460 -12.025907 23.130600 0.110831 -1.011012 12.511171 1.349114 -3.279926 44.707758 0.000003 -0.000001 -0.000003 5.211623 -16.663676 26.410004 0.206151 -1.371677 17.093911 0.960684 -2.834854 37.434996 -0.000003 -0.000000 0.000007 21.482900 13.800692 17.092304 44.704637 -9.094806 -2.396590 -37.301712 -0.181207 -8.323493 -1.018827 0.000002 -0.000001 0.000000 -0.000000 -0.000000 9.869546 -20.648376 -25.891782 48.954923 11.574384 0.112596 -33.523047 8.800040 10.455835 -0.746257 -0.000005 -0.000005 0.000000 -0.000001 -0.000000 
1.431862 79.582024 54.271812 -29.517960 -3.047526 -0.492226 0.238064 0.104921 -0.010203 0.560327 -0.650810 1.072162 0.556527 -0.649876 1.049933 3.712817 -1.802343 3.300577 -12.482226 -4.522595 -3.917851 -0.000001 0.000000 0.000000 6.139306 -19.995200 11.092241 -27.370660 -12.920709 -47.960233 0.000012 -135.878950 -0.000003 22.039405 -8.015218 29.833549 -3.346174 -16.246088 0.893545 18.141174 14.578043 -38.630423 -3.683403 33.456503 12.875765 0.000002 0.000001 0.000000 5.645829 17.368973 -27.839931 0.282150 1.797882 -17.836696 1.282159 3.659025 -38.611353 -0.000001 0.000002 -0.000005 4.346183 12.889585 -24.465499 0.153149 1.332060 -13.115230 1.735964 4.163013 -45.257103 -0.000002 -0.000004 0.000003 2.996703 10.516918 -22.471242 0.110450 1.133374 -11.131143 0.526472 2.429134 -24.454162 0.000002 0.000001 0.000008 7.899560 3.430195 -15.455817 0.141260 1.279989 -12.593802 0.362361 2.030191 -20.237813 -0.000002 0.000006 0.000002 -13.706350 12.834351 -14.183681 -5.761178 7.867918 34.845166 -0.000023 135.897637 0.000047 12.870751 10.364699 -36.536198 -3.796726 19.098853 0.362910 17.674366 -15.635770 38.264243 -1.158751 -39.089050 -12.824346 0.000002 0.000001 0.000002 7.641201 -3.005204 14.662490 0.096497 -0.944134 11.671395 0.262902 -1.544120 19.323961 -0.000002 -0.000003 -0.000002 2.875192 -10.155638 21.838514 0.045673 -0.651393 8.022834 0.441374 -1.980737 25.121608 0.000001 -0.000001 -0.000006 3.852037 -12.027202 23.130828 0.110853 -1.011064 12.511987 1.349109 -3.279912 44.707833 0.000000 0.000001 -0.000005 5.212894 -16.664354 26.409627 0.206205 -1.371806 17.095479 0.960679 -2.834864 37.435106 -0.000001 -0.000000 0.000002 21.045348 13.737626 17.097965 44.310620 -9.003297 -2.383661 -36.948482 -0.194706 -8.358038 -1.018828 0.000002 0.000001 0.000000 -0.000000 -0.000000 9.741131 -20.593287 -25.483116 48.393915 11.552180 0.103769 -33.163543 8.463946 10.377919 -0.746373 0.000002 -0.000003 -0.000000 0.000000 -0.000000 
1.449855 79.793587 54.302979 -29.086736 -2.957136 -0.554931 0.269917 0.112192 -0.036262 0.617815 -0.645683 1.068840 0.614152 -0.645669 1.038594 3.764500 -1.802876 3.293389 -12.485258 -4.500255 -3.983454 -0.000002 -0.000000 -0.000000 6.231324 -20.159891 11.336378 -27.355548 -12.509694 -47.910939 -0.000002 -135.956719 -0.000020 21.279016 -7.891059 29.407175 -3.225247 -16.419464 0.770505 18.015823 14.510583 -38.625956 -3.635555 33.462005 12.882647 -0.000003 0.000001 -0.000001 5.621716 17.344335 -27.739611 0.280645 1.793203 -17.788731 1.271502 3.645690 -38.444164 0.000000 -0.000001 -0.000004 4.298487 12.811640 -24.398986 0.152454 1.329135 -13.085892 1.729148 4.156267 -45.163229 0.000000 0.000000 0.000003 2.981391 10.478741 -22.478694 0.108282 1.122352 -11.021554 0.533172 2.443764 -24.611374 -0.000000 0.000002 0.000011 7.851075 3.405393 -15.508170 0.139325 1.271296 -12.506831 0.357660 2.017419 -20.104836 -0.000000 0.000000 -0.000004 -13.442444 12.567222 -13.905857 -6.196199 8.417961 34.990738 -0.000032 135.550787 0.000034 12.601951 10.880753 -36.197578 -3.799751 19.098129 0.360731 17.674520 -15.635112 38.264523 -1.161916 -39.090597 -12.825632 -0.000001 0.000000 -0.000000 7.640392 -3.004592 14.662864 0.096467 -0.944057 11.670284 0.262926 -1.544165 19.324591 0.000002 -0.000003 -0.000001 2.860084 -10.125644 21.815399 0.047735 -0.665762 8.200889 0.441377 -1.980772 25.122172 0.000004 -0.000001 -0.000004 3.852677 -12.028351 23.131569 0.110858 -1.011053 12.511891 1.349120 -3.279924 44.707997 0.000001 0.000001 -0.000003 5.214116 -16.665265 26.409545 0.206231 -1.371871 17.096387 0.960722 -2.834894 37.435693 -0.000003 0.000002 0.000001 20.651531 13.664883 17.136955 43.986801 -8.894755 -2.374600 -36.679178 -0.201606 -8.399396 -1.018814 0.000007 0.000004 0.000000 0.000000 0.000000 9.652707 -20.519553 -25.058589 47.859084 11.530068 0.095089 -32.830117 8.135740 10.317176 -0.746590 -0.000006 -0.000003 -0.000000 0.000000 -0.000000 
1.485953 79.955017 54.374264 -28.757395 -2.919437 -0.644507 0.294902 0.131905 -0.048404 0.661178 -0.611461 1.067022 0.657870 -0.610577 1.045640 3.823761 -1.805223 3.243862 -12.679847 -4.542336 -4.097172 0.000001 0.000000 -0.000000 6.304171 -20.229355 11.561548 -27.361429 -12.169252 -47.903996 -0.000006 -136.036632 -0.000035 20.617379 -7.703404 28.940396 -3.121871 -16.583730 0.649643 17.896994 14.433298 -38.621820 -3.594671 33.451473 12.892687 -0.000002 -0.000000 -0.000002 5.597442 17.324005 -27.617467 0.278257 1.785742 -17.712255 1.260125 3.631326 -38.264752 -0.000003 0.000001 0.000001 4.251009 12.742736 -24.307457 0.151112 1.323385 -13.028262 1.722340 4.149506 -45.069113 0.000002 0.000000 0.000005 2.965338 10.445428 -22.462703 0.105637 1.108644 -10.885214 0.539232 2.456953 -24.753333 0.000002 0.000002 0.000009 7.807774 3.384366 -15.537241 0.136859 1.260196 -12.395843 0.352787 2.004037 -19.965664 -0.000001 0.000005 0.000002 -13.177724 12.248383 -13.715097 -6.669070 8.977622 35.210544 -0.000013 135.168187 0.000028 12.427163 11.367778 -36.163106 -3.802824 19.097595 0.358462 17.674742 -15.634096 38.264499 -1.164571 -39.092772 -12.826545 0.000002 -0.000001 -0.000000 7.639404 -3.003960 14.663453 0.096503 -0.944018 11.669865 0.262927 -1.544251 19.325470 0.000002 0.000000 0.000001 2.843294 -10.092031 21.790687 0.050113 -0.682059 8.403110 0.441389 -1.980827 25.122819 0.000000 0.000001 -0.000004 3.853326 -12.029371 23.132884 0.110819 -1.010964 12.510720 1.349127 -3.279957 44.708147 -0.000003 0.000003 -0.000005 5.215270 -16.666442 26.409763 0.206211 -1.371884 17.096443 0.960773 -2.834980 37.436731 -0.000000 -0.000001 0.000007 20.442435 13.620883 17.159694 43.718419 -8.770766 -2.370859 -36.539781 -0.191413 -8.440529 -1.018830 0.000000 -0.000001 -0.000000 -0.000000 -0.000000 9.620591 -20.462361 -24.737361 47.404310 11.509951 0.087148 -32.573811 7.923445 10.315061 -0.746901 0.000002 -0.000002 0.000000 -0.000001 -0.000000 
